HIERARCHY
ROOT Hips
{
	OFFSET 0.000000 0.000000 0.000000
	CHANNELS 6 Xposition Yposition Zposition Zrotation Yrotation Xrotation 
	JOINT LHipJoint
	{
		OFFSET 0.000000 0.000000 0.000000
		CHANNELS 3 Zrotation Yrotation Xrotation
		JOINT LeftUpLeg
		{
			OFFSET 1.363060 -1.794630 0.839290
			CHANNELS 3 Zrotation Yrotation Xrotation
			JOINT LeftLeg
			{
				OFFSET 2.448110 -6.726130 0.000000
				CHANNELS 3 Zrotation Yrotation Xrotation
				JOINT LeftFoot
				{
					OFFSET 2.562200 -7.039590 0.000000
					CHANNELS 3 Zrotation Yrotation Xrotation
					JOINT LeftToeBase
					{
						OFFSET 0.157640 -0.433110 2.322550
						CHANNELS 3 Zrotation Yrotation Xrotation
						End Site
						{
							OFFSET 0.000000 0.000000 0.000000
						}
					}
				}
			}
		}
	}
	JOINT RHipJoint
	{
		OFFSET 0.000000 0.000000 0.000000
		CHANNELS 3 Zrotation Yrotation Xrotation
		JOINT RightUpLeg
		{
			OFFSET -1.305520 -1.794630 0.839290
			CHANNELS 3 Zrotation Yrotation Xrotation
			JOINT RightLeg
			{
				OFFSET -2.542530 -6.985550 0.000000
				CHANNELS 3 Zrotation Yrotation Xrotation
				JOINT RightFoot
				{
					OFFSET -2.568260 -7.056230 0.000000
					CHANNELS 3 Zrotation Yrotation Xrotation
					JOINT RightToeBase
					{
						OFFSET -0.164730 -0.452590 2.363150
						CHANNELS 3 Zrotation Yrotation Xrotation
						End Site
						{
							OFFSET 0.000000 0.000000 0.000000
						}
					}
				}
			}
		}
	}
	JOINT LowerBack
	{
		OFFSET 0.000000 0.000000 0.000000
		CHANNELS 3 Zrotation Yrotation Xrotation
		JOINT Spine
		{
			OFFSET 0.028270 2.035590 -0.193380
			CHANNELS 3 Zrotation Yrotation Xrotation
			JOINT Spine1
			{
				OFFSET 0.056720 2.048850 -0.042750
				CHANNELS 3 Zrotation Yrotation Xrotation
				JOINT Neck
				{
					OFFSET 0.000000 0.000000 0.000000
					CHANNELS 3 Zrotation Yrotation Xrotation
					JOINT Neck1
					{
						OFFSET -0.054170 1.746240 0.172020
						CHANNELS 3 Zrotation Yrotation Xrotation
						JOINT Head
						{
							OFFSET 0.104070 1.761360 -0.123970
							CHANNELS 3 Zrotation Yrotation Xrotation
							End Site
							{
								OFFSET 0.000000 0.000000 0.000000
							}
						}
					}
				}
				JOINT LeftShoulder
				{
					OFFSET 0.000000 0.000000 0.000000
					CHANNELS 3 Zrotation Yrotation Xrotation
					JOINT LeftArm
					{
						OFFSET 3.362410 1.200890 -0.311210
						CHANNELS 3 Zrotation Yrotation Xrotation
						JOINT LeftForeArm
						{
							OFFSET 4.983000 -0.000000 -0.000000
							CHANNELS 3 Zrotation Yrotation Xrotation
							JOINT LeftHand
							{
								OFFSET 3.483560 -0.000000 -0.000000
								CHANNELS 3 Zrotation Yrotation Xrotation
								JOINT LeftFingerBase
								{
									OFFSET 0.000000 0.000000 0.000000
									CHANNELS 3 Zrotation Yrotation Xrotation
									JOINT LeftHandIndex1
									{
										OFFSET 0.715260 -0.000000 -0.000000
										CHANNELS 3 Zrotation Yrotation Xrotation
										End Site
										{
											OFFSET 0.000000 0.000000 0.000000
										}
									}
								}
								JOINT LThumb
								{
									OFFSET 0.000000 0.000000 0.000000
									CHANNELS 3 Zrotation Yrotation Xrotation
									End Site
									{
										OFFSET 0.000000 0.000000 0.000000
									}
								}
							}
						}
					}
				}
				JOINT RightShoulder
				{
					OFFSET 0.000000 0.000000 0.000000
					CHANNELS 3 Zrotation Yrotation Xrotation
					JOINT RightArm
					{
						OFFSET -3.136600 1.374050 -0.404650
						CHANNELS 3 Zrotation Yrotation Xrotation
						JOINT RightForeArm
						{
							OFFSET -5.241900 -0.000000 -0.000000
							CHANNELS 3 Zrotation Yrotation Xrotation
							JOINT RightHand
							{
								OFFSET -3.444170 -0.000000 -0.000000
								CHANNELS 3 Zrotation Yrotation Xrotation
								JOINT RightFingerBase
								{
									OFFSET 0.000000 0.000000 0.000000
									CHANNELS 3 Zrotation Yrotation Xrotation
									JOINT RightHandIndex1
									{
										OFFSET -0.622530 -0.000000 -0.000000
										CHANNELS 3 Zrotation Yrotation Xrotation
										End Site
										{
											OFFSET 0.000000 0.000000 0.000000
										}
									}
								}
								JOINT RThumb
								{
									OFFSET 0.000000 0.000000 0.000000
									CHANNELS 3 Zrotation Yrotation Xrotation
									End Site
									{
										OFFSET 0.000000 0.000000 0.000000
									}
								}
							}
						}
					}
				}
			}
		}
	}
}
MOTION
Frames: 12
Frame Time: 0.008333
1.253911 17.361687 35.121700 178.543109 2.501898 -171.895842 7.811904 0.209994 -0.867575 -17.728007 -24.588419 -32.973062 1.398426 13.414676 31.921288 0.434462 16.357106 9.886903 0.964900 -6.254100 -17.523600 -12.487884 -2.791472 -5.058437 35.430956 0.098142 7.768794 -2.532999 -10.039922 34.198209 -0.557307 -13.388298 2.975922 -1.521700 7.789300 -22.075800 -2.235331 6.619972 1.663954 -1.010665 8.507688 -3.385244 -1.678197 4.330258 9.349343 -3.103516 -6.387991 -26.946943 6.546451 -10.476711 13.174938 -1.217200 -3.668700 25.784100 10.928605 4.353505 -1.072779 -63.020594 42.408104 60.721953 107.842591 -60.952090 -70.517937 1.321792 -0.240633 15.212896 15.390412 5.578539 1.372200 -7.125000 0.000000 0.000000 -10.523200 35.475000 2.497400 -11.522386 -0.084850 0.044562 90.827789 4.498042 56.943869 -121.815241 52.476477 -80.015638 0.252179 -1.557980 6.489277 -12.158142 -3.251534 0.377600 7.125000 0.000000 0.000000 11.164400 -31.585900 3.725000 
1.239792 17.375699 34.798248 178.370552 2.256581 -171.832357 7.808786 0.208893 -0.826236 -18.077488 -24.755252 -32.868534 1.199537 13.098315 30.943618 0.556934 16.524960 10.905714 1.107800 -6.687300 -18.792200 -12.456203 -2.811993 -5.131010 35.049818 -0.599847 8.220371 -2.628730 -10.087453 34.589122 -0.590635 -13.790393 4.219771 -1.426700 7.553000 -21.364400 -2.416136 6.583981 1.244462 -1.013693 8.463716 -3.395178 -1.505805 4.281772 9.504732 -3.379771 -6.510301 -27.027511 6.609393 -10.522085 13.261799 -1.080800 -3.733500 26.028500 10.888965 4.412963 -1.079787 -62.755166 42.885808 60.814637 108.749202 -60.847752 -71.303305 1.328512 -0.243299 15.073969 15.463536 5.653944 1.398900 -7.125000 0.000000 0.000000 -10.481600 35.559700 2.465300 -11.528931 -0.092769 0.050368 90.480969 4.343252 57.259171 -122.256339 52.344014 -80.492893 0.253165 -1.529039 6.830538 -11.938162 -3.362316 0.402600 7.125000 0.000000 0.000000 11.352000 -31.725200 3.751000 
1.223213 17.380192 34.475652 178.239499 2.048164 -171.794292 7.795484 0.214676 -0.806358 -18.547198 -24.624439 -32.900583 1.151764 13.017235 30.711601 0.668581 16.099893 11.615612 0.800000 -5.708800 -15.941800 -12.410622 -2.834982 -5.141587 34.679329 -1.094447 8.292916 -2.849987 -10.348052 35.653436 -0.626587 -14.481113 5.273910 -1.278800 7.166700 -20.210000 -2.511837 6.620766 0.850766 -1.032560 8.509870 -3.441182 -1.513431 4.310394 9.413972 -3.325267 -6.483028 -26.637717 6.611795 -10.641226 13.363406 -1.106000 -3.781100 25.945600 10.882352 4.425887 -1.103700 -61.978487 43.446319 61.311075 109.475295 -60.761903 -71.923396 1.383733 -0.288883 15.526015 15.720584 5.037217 1.266500 -7.125000 0.000000 0.000000 -10.233500 34.961200 2.556700 -11.518909 -0.097063 0.064635 90.383170 3.704126 57.421643 -122.672369 52.222669 -80.901792 0.237887 -1.502485 7.012385 -11.812659 -3.125558 0.352600 7.125000 0.000000 0.000000 11.435200 -31.511900 3.839300 
1.200216 17.351419 34.167067 178.204552 2.070674 -171.936554 7.763370 0.242606 -0.816936 -19.364405 -23.858573 -32.291160 1.153443 12.921241 30.565834 0.730996 14.262773 11.458536 1.289700 -7.195900 -20.296900 -12.366991 -2.850390 -5.142326 34.393271 -1.307715 8.422846 -3.096184 -10.625017 36.796131 -0.702035 -14.829657 6.964430 -1.079000 6.602600 -18.543400 -2.461731 6.708543 0.740686 -1.051490 8.623185 -3.459489 -1.540752 4.373332 9.344307 -3.442656 -6.555897 -26.359198 6.585131 -10.878001 13.557184 -1.116400 -3.903000 26.160100 10.854982 4.450194 -1.122636 -61.441026 43.596765 61.893807 110.402436 -60.604133 -72.747428 1.376167 -0.282475 15.303071 15.697473 5.357523 1.347300 -7.125000 0.000000 0.000000 -10.293300 35.288900 2.488700 -11.522088 -0.079847 0.089711 90.345342 2.902074 57.287387 -122.843482 52.188316 -81.042190 0.228421 -1.485991 7.266866 -11.672616 -2.940968 0.312700 7.125000 0.000000 0.000000 11.528300 -31.342100 3.919700 
1.178396 17.325962 33.855381 178.127842 2.018344 -172.052863 7.735194 0.267132 -0.828961 -20.109133 -23.212818 -31.985579 1.202108 12.945316 30.744633 0.780441 13.135897 11.595441 1.448900 -7.608900 -21.532200 -12.315015 -2.867102 -5.128177 34.063146 -1.555890 8.393343 -3.400991 -10.977148 38.207088 -0.774643 -15.297442 8.337983 -0.927700 6.136000 -17.179500 -2.438673 6.746348 0.592748 -1.066694 8.673693 -3.480090 -1.577990 4.405971 9.297501 -3.502118 -6.558754 -26.152077 6.571648 -10.989645 13.696619 -1.114200 -3.968500 26.305300 10.835729 4.468968 -1.138636 -60.973113 43.835894 62.319020 111.241004 -60.464886 -73.487272 1.384671 -0.288331 15.262303 15.754549 5.433763 1.372800 -7.125000 0.000000 0.000000 -10.266700 35.374000 2.460500 -11.519600 -0.073644 0.107896 90.279321 2.176747 57.282552 -123.032273 52.144023 -81.203253 0.220684 -1.469085 7.495859 -11.534068 -2.793799 0.281800 7.125000 0.000000 0.000000 11.624200 -31.210100 3.991100 
1.154437 17.286707 33.547973 178.070513 1.997275 -172.238656 7.700549 0.300454 -0.855174 -20.963499 -22.342669 -31.597522 1.316849 13.063245 31.252820 0.805569 12.092556 11.689902 1.502500 -7.742200 -21.933600 -12.255540 -2.883510 -5.091606 33.740283 -1.709557 8.220058 -3.775292 -11.408382 39.916444 -0.861229 -15.760555 9.736551 -0.773900 5.617000 -15.677000 -2.346678 6.770009 0.560823 -1.081173 8.705273 -3.499529 -1.675679 4.437563 9.219968 -3.528428 -6.514939 -25.968587 6.545189 -11.053079 13.831678 -1.123100 -4.013700 26.465000 10.820918 4.476751 -1.155164 -60.599952 43.993591 62.697684 112.016257 -60.322167 -74.177328 1.390676 -0.291576 15.227659 15.802914 5.544106 1.406000 -7.125000 0.000000 0.000000 -10.249500 35.491700 2.426400 -11.516124 -0.063540 0.126639 90.257129 1.343663 57.227307 -123.116877 52.133478 -81.244698 0.215217 -1.457242 7.711641 -11.403574 -2.661927 0.253800 7.125000 0.000000 0.000000 11.712900 -31.088900 4.057600 
1.128659 17.234724 33.244844 178.037966 1.991946 -172.491220 7.660966 0.342065 -0.891031 -21.888330 -21.284902 -31.100487 1.479913 13.239278 31.985535 0.802262 11.281843 11.699374 1.401000 -7.487500 -21.167800 -12.190282 -2.899795 -5.041692 33.424735 -1.822893 7.969566 -4.191449 -11.872453 41.784589 -0.958104 -16.276758 11.115206 -0.630800 5.081800 -14.142000 -2.178636 6.776605 0.645560 -1.097068 8.715378 -3.518159 -1.842949 4.467740 9.114422 -3.532586 -6.446226 -25.820934 6.513121 -11.085822 13.952800 -1.134400 -4.045300 26.634500 10.807506 4.474285 -1.173300 -60.315412 44.054138 63.022083 112.680435 -60.184113 -74.777980 1.396246 -0.292646 15.206767 15.865474 5.663467 1.442700 -7.125000 0.000000 0.000000 -10.221000 35.616900 2.387800 -11.515732 -0.046415 0.146939 90.288657 0.413216 57.105583 -123.092521 52.158088 -81.161499 0.213623 -1.451926 7.940138 -11.280926 -2.575921 0.235000 7.125000 0.000000 0.000000 11.796600 -31.007900 4.111100 
1.101277 17.170761 32.945031 178.023702 1.995813 -172.804206 7.614818 0.388594 -0.937120 -22.839968 -20.102611 -30.528023 1.706906 13.495537 33.004208 0.743619 10.741541 11.316871 1.211700 -6.983000 -19.665100 -12.118965 -2.915816 -4.977324 33.107006 -1.901140 7.613809 -4.661012 -12.379228 43.860614 -1.051866 -16.930100 12.334360 -0.507200 4.565200 -12.672500 -1.953249 6.763572 0.823855 -1.108089 8.698636 -3.533144 -2.049280 4.489324 8.998116 -3.487510 -6.329140 -25.709338 6.467266 -11.059801 14.056431 -1.164700 -4.047600 26.788600 10.801701 4.459334 -1.190394 -60.171305 44.031542 63.250472 113.205061 -60.061675 -75.256963 1.407006 -0.297113 15.262177 15.958141 5.685199 1.457000 -7.125000 0.000000 0.000000 -10.157600 35.644000 2.365800 -11.510286 -0.029917 0.167730 90.339177 -0.600902 56.935784 -122.960969 52.218643 -80.961984 0.216359 -1.451949 8.134100 -11.167139 -2.552714 0.228500 7.125000 0.000000 0.000000 11.877300 -30.984700 4.147100 
1.072397 17.096850 32.647464 178.031627 2.019089 -173.173935 7.564954 0.437496 -0.988693 -23.764160 -18.893511 -29.873574 1.991562 13.816327 34.260160 0.620068 10.589637 10.376256 1.023500 -6.435900 -18.054600 -12.040638 -2.928715 -4.902797 32.782799 -1.949551 7.196295 -5.175411 -12.909302 46.096204 -1.116505 -17.783580 13.191680 -0.406800 4.094500 -11.342700 -1.676581 6.745268 1.082483 -1.120479 8.677312 -3.545760 -2.297199 4.513621 8.855605 -3.441321 -6.214550 -25.562361 6.432179 -11.046078 14.156779 -1.181800 -4.056800 26.920700 10.794705 4.438731 -1.206879 -60.103131 43.906744 63.440768 113.561188 -59.961144 -75.591665 1.422323 -0.304933 15.388487 16.078606 5.618262 1.450600 -7.125000 0.000000 0.000000 -10.062000 35.581800 2.358500 -11.509228 -0.004270 0.194385 90.439365 -1.723259 56.678573 -122.734806 52.312416 -80.655371 0.225015 -1.458358 8.290301 -11.055911 -2.602496 0.235900 7.125000 0.000000 0.000000 11.960000 -31.028700 4.164200 
1.043090 17.015132 32.353640 178.041839 2.012424 -173.558136 7.511563 0.482861 -1.043409 -24.625619 -17.770931 -29.183929 2.321155 14.183232 35.684385 0.443344 10.788756 8.854336 0.905300 -6.063300 -16.968100 -11.960605 -2.939325 -4.822270 32.446999 -1.999066 6.685043 -5.728670 -13.452047 48.450531 -1.127341 -18.828800 13.542971 -0.332400 3.705100 -10.248400 -1.401037 6.689936 1.385115 -1.117606 8.604808 -3.549486 -2.503793 4.506038 8.738360 -3.394855 -6.077650 -25.463127 6.389768 -10.967067 14.231793 -1.202900 -4.042100 27.023500 10.795310 4.410280 -1.215594 -60.307814 43.670843 63.452166 113.733788 -59.891208 -75.758980 1.441550 -0.315074 15.586138 16.225489 5.445642 1.418200 -7.125000 0.000000 0.000000 -9.932600 35.411700 2.369100 -11.500605 0.016072 0.221685 90.512843 -2.865500 56.367414 -122.373781 52.452757 -80.213980 0.238469 -1.470387 8.387430 -10.973034 -2.746066 0.261700 7.125000 0.000000 0.000000 12.028900 -31.161200 4.150000 
1.013782 16.927958 32.063132 178.029958 1.990997 -173.948938 7.459072 0.524013 -1.096600 -25.436823 -16.795562 -28.447737 2.676967 14.567304 37.186500 0.237502 11.350677 6.918021 0.841100 -5.850000 -16.349900 -11.876493 -2.945280 -4.736664 32.070137 -2.033175 6.087706 -6.322889 -13.996722 50.893373 -1.067200 -19.934649 13.311785 -0.280900 3.408700 -9.418900 -1.157943 6.620634 1.719386 -1.110726 8.517219 -3.549096 -2.693271 4.488573 8.608983 -3.332558 -5.944480 -25.307365 6.362099 -10.900311 14.297527 -1.218600 -4.029400 27.058100 10.796734 4.377417 -1.218395 -60.664807 43.308720 63.386796 113.737803 -59.847684 -75.776130 1.461556 -0.328489 15.843261 16.357555 5.196160 1.363200 -7.125000 0.000000 0.000000 -9.806400 35.162900 2.398500 -11.492050 0.040947 0.255145 90.637836 -4.098385 55.940891 -121.889068 52.637964 -79.639207 0.255837 -1.488310 8.434109 -10.911046 -2.937989 0.296300 7.125000 0.000000 0.000000 12.084400 -31.336400 4.117900 
0.985009 16.838324 31.776368 177.958935 1.934952 -174.326085 7.409831 0.559037 -1.145810 -26.229541 -16.026309 -27.665582 3.035883 14.941170 38.668555 0.026717 12.208907 4.806896 0.811700 -5.749400 -16.059100 -11.789245 -2.946298 -4.647935 31.620137 -2.054046 5.381566 -6.962699 -14.536951 53.404249 -0.939224 -20.921105 12.515590 -0.250100 3.217700 -8.885300 -0.994856 6.495613 2.085025 -1.092651 8.359361 -3.541430 -2.835059 4.430017 8.498976 -3.260294 -5.779372 -25.190502 6.338652 -10.753555 14.332575 -1.229300 -3.985100 27.042600 10.804295 4.337633 -1.209715 -61.362497 42.833275 63.071373 113.544234 -59.839531 -75.614104 1.479366 -0.340214 16.145751 16.479731 4.914727 1.297300 -7.125000 0.000000 0.000000 -9.682300 34.877700 2.435500 -11.479446 0.061386 0.288732 90.774459 -5.332084 55.457120 -121.229028 52.883910 -78.874454 0.275708 -1.507165 8.430619 -10.814594 -3.124724 0.328500 7.125000 0.000000 0.000000 12.165600 -31.504800 4.096400 
